STARTFONT 2.1
FONT -Monotype-Century Schoolbook-Bold-R-Normal--17-120-100-100-P-87-iso8859-9
SIZE 12 100 100
FONTBOUNDINGBOX 21 20 -3 -3

STARTPROPERTIES 24
FOUNDRY "Monotype"
FAMILY_NAME "Century Schoolbook"
WEIGHT_NAME "Bold"
SLANT "R"
SETWIDTH_NAME "Normal"
ADD_STYLE_NAME ""
PIXEL_SIZE 17
POINT_SIZE 120
RESOLUTION_X 100
RESOLUTION_Y 100
SPACING "P"
AVERAGE_WIDTH 87
CHARSET_REGISTRY "iso8859"
CHARSET_ENCODING "9"
FACE_NAME "Century Schoolbook Bold ISO Latin5"
_DEC_DEVICE_FONTNAMES "PS=centuryschoolbook-b-lat5"
COPYRIGHT "Copyright (c) 1994 Monotype Typography Ltd."
CAP_HEIGHT 15
X_HEIGHT 10
WEIGHT 10
QUAD_WIDTH 11
DEFAULT_CHAR 160
FONT_DESCENT 4
FONT_ASCENT 18
ENDPROPERTIES

CHARS 191

STARTCHAR space
ENCODING 32
SWIDTH 287 0
DWIDTH 5 0
BBX 0 0 0 0
BITMAP
ENDCHAR

STARTCHAR exclam
ENCODING 33
SWIDTH 296 0
DWIDTH 5 0
BBX 3 12 1 0
BITMAP
40
E0
E0
E0
E0
E0
40
40
00
40
E0
40
ENDCHAR

STARTCHAR quotedbl
ENCODING 34
SWIDTH 333 0
DWIDTH 6 0
BBX 5 6 0 6
BITMAP
D8
D8
D8
D8
48
48
ENDCHAR

STARTCHAR numbersign
ENCODING 35
SWIDTH 574 0
DWIDTH 10 0
BBX 11 12 -1 0
BITMAP
0CC0
0880
1980
7FE0
1980
1100
3300
FFC0
3300
2200
6600
4400
ENDCHAR

STARTCHAR dollar
ENCODING 36
SWIDTH 574 0
DWIDTH 10 0
BBX 7 16 1 -2
BITMAP
10
10
7C
E6
C6
E4
F0
78
3C
1E
4E
C6
CE
7C
10
10
ENDCHAR

STARTCHAR percent
ENCODING 37
SWIDTH 833 0
DWIDTH 14 0
BBX 12 12 1 0
BITMAP
2040
5080
D880
D900
DA00
5240
24A0
09B0
09B0
11B0
20A0
2040
ENDCHAR

STARTCHAR ampersand
ENCODING 38
SWIDTH 852 0
DWIDTH 14 0
BBX 12 12 1 0
BITMAP
0E00
1B00
3180
3180
1B00
1E00
3C70
6E20
E760
E3D0
F3D0
7DE0
ENDCHAR

STARTCHAR quoteright
ENCODING 39
SWIDTH 241 0
DWIDTH 4 0
BBX 3 6 0 6
BITMAP
C0
E0
60
20
40
80
ENDCHAR

STARTCHAR parenleft
ENCODING 40
SWIDTH 389 0
DWIDTH 7 0
BBX 5 15 1 -3
BITMAP
08
10
30
70
60
E0
E0
E0
E0
E0
60
70
30
10
08
ENDCHAR

STARTCHAR parenright
ENCODING 41
SWIDTH 389 0
DWIDTH 7 0
BBX 5 15 0 -3
BITMAP
80
40
60
70
30
38
38
38
38
38
30
70
60
40
80
ENDCHAR

STARTCHAR asterisk
ENCODING 42
SWIDTH 500 0
DWIDTH 9 0
BBX 7 7 1 5
BITMAP
10
10
FE
7C
38
6C
C6
ENDCHAR

STARTCHAR plus
ENCODING 43
SWIDTH 606 0
DWIDTH 10 0
BBX 10 10 0 1
BITMAP
0C00
0C00
0C00
0C00
FFC0
FFC0
0C00
0C00
0C00
0C00
ENDCHAR

STARTCHAR comma
ENCODING 44
SWIDTH 278 0
DWIDTH 5 0
BBX 3 6 1 -3
BITMAP
C0
E0
60
20
40
80
ENDCHAR

STARTCHAR minus
ENCODING 45
SWIDTH 606 0
DWIDTH 10 0
BBX 9 2 1 5
BITMAP
FF80
FF80
ENDCHAR

STARTCHAR period
ENCODING 46
SWIDTH 278 0
DWIDTH 5 0
BBX 4 3 1 0
BITMAP
60
F0
60
ENDCHAR

STARTCHAR slash
ENCODING 47
SWIDTH 278 0
DWIDTH 5 0
BBX 5 13 0 0
BITMAP
08
18
18
10
30
30
20
60
60
40
C0
C0
80
ENDCHAR

STARTCHAR zero
ENCODING 48
SWIDTH 574 0
DWIDTH 10 0
BBX 8 12 1 0
BITMAP
3C
66
66
E7
E7
E7
E7
E7
E7
66
66
3C
ENDCHAR

STARTCHAR one
ENCODING 49
SWIDTH 574 0
DWIDTH 10 0
BBX 7 12 2 0
BITMAP
18
F8
38
38
38
38
38
38
38
38
38
FE
ENDCHAR

STARTCHAR two
ENCODING 50
SWIDTH 574 0
DWIDTH 10 0
BBX 8 12 1 0
BITMAP
3C
4E
C7
E7
67
0E
0C
18
21
41
FF
FF
ENDCHAR

STARTCHAR three
ENCODING 51
SWIDTH 574 0
DWIDTH 10 0
BBX 8 12 1 0
BITMAP
3C
4E
E7
67
06
1C
06
47
E7
C7
4E
3C
ENDCHAR

STARTCHAR four
ENCODING 52
SWIDTH 574 0
DWIDTH 10 0
BBX 9 12 1 0
BITMAP
0600
0E00
1E00
1E00
2E00
4E00
4E00
8E00
FF80
0E00
0E00
3F80
ENDCHAR

STARTCHAR five
ENCODING 53
SWIDTH 574 0
DWIDTH 10 0
BBX 8 12 1 0
BITMAP
7F
7C
40
40
5C
6E
47
07
67
E7
4E
3C
ENDCHAR

STARTCHAR six
ENCODING 54
SWIDTH 574 0
DWIDTH 10 0
BBX 8 12 1 0
BITMAP
1E
33
63
60
E0
FC
E6
E7
E7
E7
66
3C
ENDCHAR

STARTCHAR seven
ENCODING 55
SWIDTH 574 0
DWIDTH 10 0
BBX 9 12 0 0
BITMAP
7F80
FF80
8300
0300
0700
0600
0600
0E00
0E00
0C00
1C00
1C00
ENDCHAR

STARTCHAR eight
ENCODING 56
SWIDTH 574 0
DWIDTH 10 0
BBX 8 12 1 0
BITMAP
3C
66
E3
E3
76
3C
7E
CF
C7
C3
66
3C
ENDCHAR

STARTCHAR nine
ENCODING 57
SWIDTH 574 0
DWIDTH 10 0
BBX 8 12 1 0
BITMAP
3C
66
E7
E7
E7
67
3F
07
06
C6
CC
78
ENDCHAR

STARTCHAR colon
ENCODING 58
SWIDTH 278 0
DWIDTH 5 0
BBX 4 8 1 0
BITMAP
60
F0
60
00
00
60
F0
60
ENDCHAR

STARTCHAR semicolon
ENCODING 59
SWIDTH 278 0
DWIDTH 5 0
BBX 4 11 1 -3
BITMAP
60
F0
60
00
00
C0
E0
60
20
40
80
ENDCHAR

STARTCHAR less
ENCODING 60
SWIDTH 606 0
DWIDTH 10 0
BBX 9 10 1 1
BITMAP
0080
0380
0F00
3C00
F000
F000
3C00
0F00
0380
0080
ENDCHAR

STARTCHAR equal
ENCODING 61
SWIDTH 606 0
DWIDTH 10 0
BBX 9 6 1 3
BITMAP
FF80
FF80
0000
0000
FF80
FF80
ENDCHAR

STARTCHAR greater
ENCODING 62
SWIDTH 606 0
DWIDTH 10 0
BBX 9 10 0 1
BITMAP
8000
E000
7800
1E00
0780
0780
1E00
7800
E000
8000
ENDCHAR

STARTCHAR question
ENCODING 63
SWIDTH 500 0
DWIDTH 9 0
BBX 7 12 1 0
BITMAP
78
9C
CE
CE
1C
18
30
20
00
60
F0
60
ENDCHAR

STARTCHAR at
ENCODING 64
SWIDTH 747 0
DWIDTH 13 0
BBX 12 13 0 0
BITMAP
0F00
30C0
4020
42A0
8590
8990
9910
9B20
9D60
4990
4010
3060
0F80
ENDCHAR

STARTCHAR A
ENCODING 65
SWIDTH 759 0
DWIDTH 13 0
BBX 13 12 0 0
BITMAP
0600
0700
0F00
0B80
0B80
11C0
11C0
3FC0
20E0
40E0
4070
E0F8
ENDCHAR

STARTCHAR B
ENCODING 66
SWIDTH 778 0
DWIDTH 13 0
BBX 11 12 1 0
BITMAP
FF00
7380
71C0
71C0
7380
7F00
71C0
70E0
70E0
70E0
71C0
FF80
ENDCHAR

STARTCHAR C
ENCODING 67
SWIDTH 778 0
DWIDTH 13 0
BBX 11 12 1 0
BITMAP
0F20
38E0
7060
6020
E020
E000
E000
E000
6020
7020
3840
0F80
ENDCHAR

STARTCHAR D
ENCODING 68
SWIDTH 833 0
DWIDTH 14 0
BBX 12 12 1 0
BITMAP
FF00
70C0
7060
7060
7070
7070
7070
7070
7060
7060
70C0
FF00
ENDCHAR

STARTCHAR E
ENCODING 69
SWIDTH 759 0
DWIDTH 13 0
BBX 10 12 1 0
BITMAP
FFC0
70C0
7040
7240
7200
7E00
7200
7200
7040
7040
70C0
FFC0
ENDCHAR

STARTCHAR F
ENCODING 70
SWIDTH 722 0
DWIDTH 12 0
BBX 10 12 1 0
BITMAP
FFC0
70C0
7040
7240
7200
7E00
7200
7200
7000
7000
7000
F800
ENDCHAR

STARTCHAR G
ENCODING 71
SWIDTH 833 0
DWIDTH 14 0
BBX 12 12 1 0
BITMAP
0F20
38E0
7060
6020
E020
E000
E1F0
E060
6060
7060
38E0
0F20
ENDCHAR

STARTCHAR H
ENCODING 72
SWIDTH 870 0
DWIDTH 15 0
BBX 13 12 1 0
BITMAP
F8F8
7070
7070
7070
7070
7FF0
7070
7070
7070
7070
7070
F8F8
ENDCHAR

STARTCHAR I
ENCODING 73
SWIDTH 444 0
DWIDTH 7 0
BBX 5 12 1 0
BITMAP
F8
70
70
70
70
70
70
70
70
70
70
F8
ENDCHAR

STARTCHAR J
ENCODING 74
SWIDTH 648 0
DWIDTH 11 0
BBX 9 12 1 0
BITMAP
0F80
0700
0700
0700
0700
0700
6700
E700
C700
8700
4E00
3C00
ENDCHAR

STARTCHAR K
ENCODING 75
SWIDTH 815 0
DWIDTH 14 0
BBX 12 12 1 0
BITMAP
F9F0
70C0
7080
7100
7300
7700
7B80
7380
71C0
71C0
70E0
F9F0
ENDCHAR

STARTCHAR L
ENCODING 76
SWIDTH 722 0
DWIDTH 12 0
BBX 10 12 1 0
BITMAP
F800
7000
7000
7000
7000
7000
7000
7040
7040
7040
70C0
FFC0
ENDCHAR

STARTCHAR M
ENCODING 77
SWIDTH 981 0
DWIDTH 16 0
BBX 14 12 1 0
BITMAP
F07C
7078
7078
78B8
58B8
58B8
5D38
4D38
4D38
4E38
4638
E67C
ENDCHAR

STARTCHAR N
ENCODING 78
SWIDTH 833 0
DWIDTH 14 0
BBX 12 12 1 0
BITMAP
E070
7020
7820
5C20
5C20
4E20
4720
43A0
43A0
41E0
40E0
E060
ENDCHAR

STARTCHAR O
ENCODING 79
SWIDTH 833 0
DWIDTH 14 0
BBX 12 12 1 0
BITMAP
0F00
39C0
70E0
6060
E070
E070
E070
E070
6060
70E0
39C0
0F00
ENDCHAR

STARTCHAR P
ENCODING 80
SWIDTH 759 0
DWIDTH 13 0
BBX 11 12 1 0
BITMAP
FF00
71C0
70E0
70E0
70E0
71C0
7F00
7000
7000
7000
7000
F800
ENDCHAR

STARTCHAR Q
ENCODING 81
SWIDTH 833 0
DWIDTH 14 0
BBX 12 15 1 -3
BITMAP
0F00
39C0
70E0
6060
E070
E070
E070
EE70
7160
71E0
39C0
0F80
0180
01A0
00C0
ENDCHAR

STARTCHAR R
ENCODING 82
SWIDTH 815 0
DWIDTH 13 0
BBX 11 12 1 0
BITMAP
FF00
7380
71C0
71C0
7380
7E00
7700
7380
7380
73A0
71E0
F9C0
ENDCHAR

STARTCHAR S
ENCODING 83
SWIDTH 667 0
DWIDTH 11 0
BBX 9 12 1 0
BITMAP
3C80
7380
E180
E080
F800
7E00
3F00
8F80
8380
C380
E700
9E00
ENDCHAR

STARTCHAR T
ENCODING 84
SWIDTH 722 0
DWIDTH 13 0
BBX 11 12 1 0
BITMAP
7FC0
CE60
CE60
8E20
8E20
0E00
0E00
0E00
0E00
0E00
0E00
1F00
ENDCHAR

STARTCHAR U
ENCODING 85
SWIDTH 833 0
DWIDTH 14 0
BBX 12 12 1 0
BITMAP
F870
7020
7020
7020
7020
7020
7020
7020
7020
7020
3840
0F80
ENDCHAR

STARTCHAR V
ENCODING 86
SWIDTH 759 0
DWIDTH 13 0
BBX 13 12 0 0
BITMAP
F878
7030
7020
3820
3840
1C40
1CC0
0E80
0E80
0780
0700
0300
ENDCHAR

STARTCHAR W
ENCODING 87
SWIDTH 981 0
DWIDTH 18 0
BBX 18 12 0 0
BITMAP
F9F3C0
70E180
70E100
30E100
38F300
38B200
19BA00
1D3A00
0D1A00
0E1C00
0E1C00
060C00
ENDCHAR

STARTCHAR X
ENCODING 88
SWIDTH 722 0
DWIDTH 12 0
BBX 12 12 0 0
BITMAP
F8F0
7060
3840
3880
1D00
0F00
0F00
0B80
11C0
21C0
60E0
F1F0
ENDCHAR

STARTCHAR Y
ENCODING 89
SWIDTH 722 0
DWIDTH 12 0
BBX 12 12 0 0
BITMAP
F8F0
7060
3840
3840
1C80
0E80
0F00
0700
0700
0700
0700
0F80
ENDCHAR

STARTCHAR Z
ENCODING 90
SWIDTH 667 0
DWIDTH 11 0
BBX 9 12 1 0
BITMAP
FF80
C700
8700
8E00
0E00
1C00
3800
3800
7080
7080
E180
FF80
ENDCHAR

STARTCHAR bracketleft
ENCODING 91
SWIDTH 389 0
DWIDTH 7 0
BBX 4 15 2 -3
BITMAP
F0
C0
C0
C0
C0
C0
C0
C0
C0
C0
C0
C0
C0
C0
F0
ENDCHAR

STARTCHAR backslash
ENCODING 92
SWIDTH 606 0
DWIDTH 10 0
BBX 10 13 0 0
BITMAP
C000
6000
2000
3000
1800
0800
0C00
0600
0200
0300
0180
0080
00C0
ENDCHAR

STARTCHAR bracketright
ENCODING 93
SWIDTH 389 0
DWIDTH 7 0
BBX 4 15 0 -3
BITMAP
F0
30
30
30
30
30
30
30
30
30
30
30
30
30
F0
ENDCHAR

STARTCHAR asciicircum
ENCODING 94
SWIDTH 606 0
DWIDTH 10 0
BBX 7 6 2 7
BITMAP
10
30
38
28
6C
C6
ENDCHAR

STARTCHAR underscore
ENCODING 95
SWIDTH 500 0
DWIDTH 9 0
BBX 9 1 0 -2
BITMAP
FF80
ENDCHAR

STARTCHAR quoteleft
ENCODING 96
SWIDTH 241 0
DWIDTH 4 0
BBX 3 6 0 6
BITMAP
20
40
80
C0
E0
60
ENDCHAR

STARTCHAR a
ENCODING 97
SWIDTH 611 0
DWIDTH 10 0
BBX 10 8 0 0
BITMAP
3E00
6700
6700
1F00
6700
E700
E740
7D80
ENDCHAR

STARTCHAR b
ENCODING 98
SWIDTH 648 0
DWIDTH 11 0
BBX 10 12 0 0
BITMAP
F000
7000
7000
7000
7700
7980
71C0
71C0
71C0
71C0
7980
6700
ENDCHAR

STARTCHAR c
ENCODING 99
SWIDTH 556 0
DWIDTH 9 0
BBX 8 8 0 0
BITMAP
3E
73
E3
E0
E0
E1
72
3C
ENDCHAR

STARTCHAR d
ENCODING 100
SWIDTH 667 0
DWIDTH 11 0
BBX 10 12 0 0
BITMAP
0780
0380
0380
0380
3F80
7380
E380
E380
E380
E380
7380
3DC0
ENDCHAR

STARTCHAR e
ENCODING 101
SWIDTH 574 0
DWIDTH 9 0
BBX 8 8 0 0
BITMAP
3C
66
E7
FF
E0
E1
62
3C
ENDCHAR

STARTCHAR f
ENCODING 102
SWIDTH 389 0
DWIDTH 7 0
BBX 7 12 0 0
BITMAP
1C
36
76
70
FC
70
70
70
70
70
70
F8
ENDCHAR

STARTCHAR g
ENCODING 103
SWIDTH 611 0
DWIDTH 10 0
BBX 9 12 1 -3
BITMAP
0180
7F80
E600
E600
E600
7C00
8000
F800
7E00
CF00
C700
7E00
ENDCHAR

STARTCHAR h
ENCODING 104
SWIDTH 685 0
DWIDTH 12 0
BBX 11 12 0 0
BITMAP
F000
7000
7000
7000
7780
79C0
71C0
71C0
71C0
71C0
71C0
FBE0
ENDCHAR

STARTCHAR i
ENCODING 105
SWIDTH 370 0
DWIDTH 6 0
BBX 5 12 0 0
BITMAP
70
70
70
00
F0
70
70
70
70
70
70
F8
ENDCHAR

STARTCHAR j
ENCODING 106
SWIDTH 352 0
DWIDTH 6 0
BBX 6 15 -2 -3
BITMAP
1C
1C
1C
00
3C
1C
1C
1C
1C
1C
1C
1C
DC
D8
70
ENDCHAR

STARTCHAR k
ENCODING 107
SWIDTH 667 0
DWIDTH 11 0
BBX 11 12 0 0
BITMAP
F000
7000
7000
7000
73C0
7100
7200
7600
7F00
7380
71C0
FBE0
ENDCHAR

STARTCHAR l
ENCODING 108
SWIDTH 352 0
DWIDTH 6 0
BBX 5 12 0 0
BITMAP
F0
70
70
70
70
70
70
70
70
70
70
F8
ENDCHAR

STARTCHAR m
ENCODING 109
SWIDTH 963 0
DWIDTH 16 0
BBX 15 8 0 0
BITMAP
F7B8
7BFC
739C
739C
739C
739C
739C
FBDE
ENDCHAR

STARTCHAR n
ENCODING 110
SWIDTH 685 0
DWIDTH 12 0
BBX 11 8 0 0
BITMAP
F780
79C0
71C0
71C0
71C0
71C0
71C0
FBE0
ENDCHAR

STARTCHAR o
ENCODING 111
SWIDTH 611 0
DWIDTH 10 0
BBX 9 8 0 0
BITMAP
3E00
6300
E380
E380
E380
E380
6300
3E00
ENDCHAR

STARTCHAR p
ENCODING 112
SWIDTH 667 0
DWIDTH 11 0
BBX 10 11 0 -3
BITMAP
F700
7980
71C0
71C0
71C0
71C0
7980
7700
7000
7000
F800
ENDCHAR

STARTCHAR q
ENCODING 113
SWIDTH 648 0
DWIDTH 11 0
BBX 10 11 0 -3
BITMAP
3D80
6380
E380
E380
E380
E380
6780
3B80
0380
0380
07C0
ENDCHAR

STARTCHAR r
ENCODING 114
SWIDTH 519 0
DWIDTH 9 0
BBX 8 8 0 0
BITMAP
EE
7B
73
70
70
70
70
F8
ENDCHAR

STARTCHAR s
ENCODING 115
SWIDTH 500 0
DWIDTH 8 0
BBX 7 8 0 0
BITMAP
7A
C6
F0
FC
7E
0E
CE
BC
ENDCHAR

STARTCHAR t
ENCODING 116
SWIDTH 426 0
DWIDTH 7 0
BBX 6 12 0 0
BITMAP
10
30
30
70
FC
70
70
70
70
74
74
38
ENDCHAR

STARTCHAR u
ENCODING 117
SWIDTH 685 0
DWIDTH 12 0
BBX 11 8 0 0
BITMAP
F3C0
71C0
71C0
71C0
71C0
71C0
73C0
3DE0
ENDCHAR

STARTCHAR v
ENCODING 118
SWIDTH 611 0
DWIDTH 11 0
BBX 10 8 0 0
BITMAP
F9C0
7080
3980
3900
1B00
1E00
0E00
0C00
ENDCHAR

STARTCHAR w
ENCODING 119
SWIDTH 889 0
DWIDTH 15 0
BBX 14 8 0 0
BITMAP
FBDC
7188
3998
3AD0
3AD0
1CE0
1C60
0C60
ENDCHAR

STARTCHAR x
ENCODING 120
SWIDTH 611 0
DWIDTH 11 0
BBX 10 8 0 0
BITMAP
FBC0
7180
3900
1E00
1E00
2700
6380
F7C0
ENDCHAR

STARTCHAR y
ENCODING 121
SWIDTH 611 0
DWIDTH 10 0
BBX 10 11 0 -3
BITMAP
F9C0
7080
3980
3900
1D00
0E00
0E00
0400
6800
6800
3000
ENDCHAR

STARTCHAR z
ENCODING 122
SWIDTH 537 0
DWIDTH 8 0
BBX 7 8 0 0
BITMAP
FE
CE
9C
18
38
72
E6
FE
ENDCHAR

STARTCHAR braceleft
ENCODING 123
SWIDTH 389 0
DWIDTH 7 0
BBX 6 15 1 -3
BITMAP
0C
10
30
30
70
70
20
C0
20
70
70
30
30
10
0C
ENDCHAR

STARTCHAR bar
ENCODING 124
SWIDTH 606 0
DWIDTH 10 0
BBX 2 15 4 -3
BITMAP
C0
C0
C0
C0
C0
C0
C0
C0
C0
C0
C0
C0
C0
C0
C0
ENDCHAR

STARTCHAR braceright
ENCODING 125
SWIDTH 389 0
DWIDTH 7 0
BBX 6 15 0 -3
BITMAP
C0
20
30
30
38
38
10
0C
10
38
38
30
30
20
C0
ENDCHAR

STARTCHAR asciitilde
ENCODING 126
SWIDTH 606 0
DWIDTH 10 0
BBX 8 2 1 5
BITMAP
79
9E
ENDCHAR

STARTCHAR space
ENCODING 160
SWIDTH 287 0
DWIDTH 6 0
BBX 0 0 0 0
BITMAP
ENDCHAR

STARTCHAR exclamdown
ENCODING 161
SWIDTH 296 0
DWIDTH 5 0
BBX 3 12 1 -3
BITMAP
40
E0
40
00
40
40
E0
E0
E0
E0
E0
40
ENDCHAR

STARTCHAR cent
ENCODING 162
SWIDTH 574 0
DWIDTH 10 0
BBX 8 13 1 -3
BITMAP
01
01
3E
73
E7
E4
E8
E9
72
3C
20
20
40
ENDCHAR

STARTCHAR sterling
ENCODING 163
SWIDTH 574 0
DWIDTH 10 0
BBX 10 12 0 0
BITMAP
0F00
1980
1980
1900
1C00
7F00
0C00
0C00
7C00
CE40
CEC0
7380
ENDCHAR

STARTCHAR currency
ENCODING 164
SWIDTH 606 0
DWIDTH 10 0
BBX 9 9 0 1
BITMAP
4100
FF80
6300
4100
4100
4100
6300
FF80
4100
ENDCHAR

STARTCHAR yen
ENCODING 165
SWIDTH 722 0
DWIDTH 12 0
BBX 12 12 0 0
BITMAP
F8F0
7060
3840
1C40
1C80
0F00
7FE0
0600
0600
7FE0
0600
0F00
ENDCHAR

STARTCHAR brokenbar
ENCODING 166
SWIDTH 606 0
DWIDTH 10 0
BBX 2 15 4 -3
BITMAP
C0
C0
C0
C0
C0
C0
C0
00
C0
C0
C0
C0
C0
C0
C0
ENDCHAR

STARTCHAR section
ENCODING 167
SWIDTH 500 0
DWIDTH 9 0
BBX 6 15 1 -3
BITMAP
78
CC
CC
E0
70
F8
98
CC
64
74
3C
18
CC
CC
78
ENDCHAR

STARTCHAR dieresis
ENCODING 168
SWIDTH 333 0
DWIDTH 6 0
BBX 6 2 0 9
BITMAP
CC
CC
ENDCHAR

STARTCHAR copyright
ENCODING 169
SWIDTH 747 0
DWIDTH 13 0
BBX 12 12 0 0
BITMAP
0F00
30C0
4F20
58A0
B090
B010
B010
B010
58A0
4F20
30C0
0F00
ENDCHAR

STARTCHAR ordfeminine
ENCODING 170
SWIDTH 367 0
DWIDTH 6 0
BBX 6 5 0 7
BITMAP
70
98
78
D8
6C
ENDCHAR

STARTCHAR guillemotleft
ENCODING 171
SWIDTH 500 0
DWIDTH 9 0
BBX 8 7 0 1
BITMAP
11
22
66
EE
66
22
11
ENDCHAR

STARTCHAR logicalnot
ENCODING 172
SWIDTH 606 0
DWIDTH 10 0
BBX 9 6 0 3
BITMAP
FF80
FF80
0180
0180
0180
0180
ENDCHAR

STARTCHAR hyphen
ENCODING 173
SWIDTH 333 0
DWIDTH 6 0
BBX 4 1 1 3
BITMAP
F0
ENDCHAR

STARTCHAR registered
ENCODING 174
SWIDTH 747 0
DWIDTH 13 0
BBX 12 12 0 0
BITMAP
0F00
30C0
5F20
59A0
9990
9F10
9B10
9990
59A0
4020
30C0
0F00
ENDCHAR

STARTCHAR macron
ENCODING 175
SWIDTH 333 0
DWIDTH 6 0
BBX 6 1 0 9
BITMAP
FC
ENDCHAR

STARTCHAR degree
ENCODING 176
SWIDTH 400 0
DWIDTH 7 0
BBX 5 5 1 7
BITMAP
70
D8
88
D8
70
ENDCHAR

STARTCHAR plusminus
ENCODING 177
SWIDTH 606 0
DWIDTH 10 0
BBX 10 13 0 -1
BITMAP
0C00
0C00
0C00
0C00
FFC0
FFC0
0C00
0C00
0C00
0C00
0000
FFC0
FFC0
ENDCHAR

STARTCHAR twosuperior
ENCODING 178
SWIDTH 344 0
DWIDTH 6 0
BBX 5 6 0 6
BITMAP
70
98
18
30
68
F8
ENDCHAR

STARTCHAR threesuperior
ENCODING 179
SWIDTH 344 0
DWIDTH 6 0
BBX 5 6 0 6
BITMAP
70
D8
30
18
D8
70
ENDCHAR

STARTCHAR acute
ENCODING 180
SWIDTH 333 0
DWIDTH 6 0
BBX 3 2 1 9
BITMAP
60
C0
ENDCHAR

STARTCHAR mu
ENCODING 181
SWIDTH 685 0
DWIDTH 12 0
BBX 9 11 1 -3
BITMAP
6600
6600
6600
6600
6600
6600
6E80
7B00
C000
C000
C000
ENDCHAR

STARTCHAR paragraph
ENCODING 182
SWIDTH 747 0
DWIDTH 13 0
BBX 9 15 2 -3
BITMAP
7F80
FA00
FA00
FA00
FA00
FA00
FA00
7A00
0A00
0A00
0A00
0A00
0A00
0A00
0A00
ENDCHAR

STARTCHAR periodcentered
ENCODING 183
SWIDTH 278 0
DWIDTH 5 0
BBX 3 3 1 5
BITMAP
40
E0
40
ENDCHAR

STARTCHAR cedilla
ENCODING 184
SWIDTH 333 0
DWIDTH 6 0
BBX 3 3 2 -3
BITMAP
40
20
C0
ENDCHAR

STARTCHAR onesuperior
ENCODING 185
SWIDTH 344 0
DWIDTH 6 0
BBX 4 6 1 6
BITMAP
60
E0
60
60
60
F0
ENDCHAR

STARTCHAR ordmasculine
ENCODING 186
SWIDTH 367 0
DWIDTH 6 0
BBX 6 6 0 6
BITMAP
30
48
CC
CC
48
30
ENDCHAR

STARTCHAR guillemotright
ENCODING 187
SWIDTH 500 0
DWIDTH 9 0
BBX 8 7 0 1
BITMAP
88
44
66
77
66
44
88
ENDCHAR

STARTCHAR onequarter
ENCODING 188
SWIDTH 861 0
DWIDTH 15 0
BBX 12 12 1 0
BITMAP
6020
E040
6040
6080
6100
F100
0220
0460
04E0
0960
13F0
1060
ENDCHAR

STARTCHAR onehalf
ENCODING 189
SWIDTH 861 0
DWIDTH 15 0
BBX 12 12 1 0
BITMAP
6040
E080
6080
6100
6200
F200
04E0
0930
0830
1060
20D0
21F0
ENDCHAR

STARTCHAR threequarters
ENCODING 190
SWIDTH 861 0
DWIDTH 15 0
BBX 12 12 1 0
BITMAP
7020
D840
3040
1880
D900
7100
0220
0460
04E0
0960
13F0
1060
ENDCHAR

STARTCHAR questiondown
ENCODING 191
SWIDTH 500 0
DWIDTH 9 0
BBX 7 12 1 -3
BITMAP
0C
1E
0C
00
08
18
30
70
E6
E6
72
3C
ENDCHAR

STARTCHAR Agrave
ENCODING 192
SWIDTH 759 0
DWIDTH 13 0
BBX 13 15 0 0
BITMAP
0C00
0600
0000
0600
0700
0F00
0B80
0B80
11C0
11C0
3FC0
20E0
40E0
4070
E0F8
ENDCHAR

STARTCHAR Aacute
ENCODING 193
SWIDTH 759 0
DWIDTH 13 0
BBX 13 15 0 0
BITMAP
0300
0600
0000
0600
0700
0F00
0B80
0B80
11C0
11C0
3FC0
20E0
40E0
4070
E0F8
ENDCHAR

STARTCHAR Acircumflex
ENCODING 194
SWIDTH 759 0
DWIDTH 13 0
BBX 13 16 0 0
BITMAP
0200
0700
0880
0000
0600
0700
0F00
0B80
0B80
11C0
11C0
3FC0
20E0
40E0
4070
E0F8
ENDCHAR

STARTCHAR Atilde
ENCODING 195
SWIDTH 759 0
DWIDTH 13 0
BBX 13 15 0 0
BITMAP
0680
0B00
0000
0600
0700
0F00
0B80
0B80
11C0
11C0
3FC0
20E0
40E0
4070
E0F8
ENDCHAR

STARTCHAR Adieresis
ENCODING 196
SWIDTH 759 0
DWIDTH 13 0
BBX 13 15 0 0
BITMAP
1980
1980
0000
0600
0700
0F00
0B80
0B80
11C0
11C0
3FC0
20E0
40E0
4070
E0F8
ENDCHAR

STARTCHAR Aring
ENCODING 197
SWIDTH 759 0
DWIDTH 13 0
BBX 13 16 0 0
BITMAP
0600
0900
0600
0000
0600
0700
0F00
0B80
0B80
11C0
11C0
3FC0
20E0
40E0
4070
E0F8
ENDCHAR

STARTCHAR AE
ENCODING 198
SWIDTH 981 0
DWIDTH 17 0
BBX 15 13 1 0
BITMAP
1FFE
07C6
05C2
09C2
09C8
11C8
11F8
3FC8
21C8
21C2
41C2
41C6
E7FE
ENDCHAR

STARTCHAR Ccedilla
ENCODING 199
SWIDTH 778 0
DWIDTH 13 0
BBX 11 15 1 -3
BITMAP
0F20
38E0
7060
6020
E020
E000
E000
E000
6020
7020
3840
0F80
0200
0100
0600
ENDCHAR

STARTCHAR Egrave
ENCODING 200
SWIDTH 759 0
DWIDTH 13 0
BBX 10 15 1 0
BITMAP
1800
0C00
0000
FFC0
70C0
7040
7240
7200
7E00
7200
7200
7040
7040
70C0
FFC0
ENDCHAR

STARTCHAR Eacute
ENCODING 201
SWIDTH 759 0
DWIDTH 13 0
BBX 10 15 1 0
BITMAP
0600
0C00
0000
FFC0
70C0
7040
7240
7200
7E00
7200
7200
7040
7040
70C0
FFC0
ENDCHAR

STARTCHAR Ecircumflex
ENCODING 202
SWIDTH 759 0
DWIDTH 13 0
BBX 10 16 1 0
BITMAP
0400
0E00
1100
0000
FFC0
70C0
7040
7240
7200
7E00
7200
7200
7040
7040
70C0
FFC0
ENDCHAR

STARTCHAR Edieresis
ENCODING 203
SWIDTH 759 0
DWIDTH 13 0
BBX 10 15 1 0
BITMAP
3300
3300
0000
FFC0
70C0
7040
7240
7200
7E00
7200
7200
7040
7040
70C0
FFC0
ENDCHAR

STARTCHAR Igrave
ENCODING 204
SWIDTH 444 0
DWIDTH 7 0
BBX 5 15 1 0
BITMAP
60
30
00
F8
70
70
70
70
70
70
70
70
70
70
F8
ENDCHAR

STARTCHAR Iacute
ENCODING 205
SWIDTH 444 0
DWIDTH 7 0
BBX 5 15 1 0
BITMAP
18
30
00
F8
70
70
70
70
70
70
70
70
70
70
F8
ENDCHAR

STARTCHAR Icircumflex
ENCODING 206
SWIDTH 444 0
DWIDTH 7 0
BBX 5 16 1 0
BITMAP
20
70
88
00
F8
70
70
70
70
70
70
70
70
70
70
F8
ENDCHAR

STARTCHAR Idieresis
ENCODING 207
SWIDTH 444 0
DWIDTH 7 0
BBX 6 15 1 0
BITMAP
CC
CC
00
F8
70
70
70
70
70
70
70
70
70
70
F8
ENDCHAR

STARTCHAR Gbreve
ENCODING 208
SWIDTH 833 0
DWIDTH 14 0
BBX 12 16 1 0
BITMAP
1080
0F00
0600
0000
0F20
38E0
7060
6020
E020
E000
E1F0
E060
6060
7060
38E0
0F20
ENDCHAR

STARTCHAR Ntilde
ENCODING 209
SWIDTH 833 0
DWIDTH 14 0
BBX 12 15 1 0
BITMAP
0680
0B00
0000
E070
7020
7820
5C20
5C20
4E20
4720
43A0
43A0
41E0
40E0
E060
ENDCHAR

STARTCHAR Ograve
ENCODING 210
SWIDTH 833 0
DWIDTH 14 0
BBX 12 15 1 0
BITMAP
0C00
0600
0000
0F00
39C0
70E0
6060
E070
E070
E070
E070
6060
70E0
39C0
0F00
ENDCHAR

STARTCHAR Oacute
ENCODING 211
SWIDTH 833 0
DWIDTH 14 0
BBX 12 15 1 0
BITMAP
0300
0600
0000
0F00
39C0
70E0
6060
E070
E070
E070
E070
6060
70E0
39C0
0F00
ENDCHAR

STARTCHAR Ocircumflex
ENCODING 212
SWIDTH 833 0
DWIDTH 14 0
BBX 13 17 1 0
BITMAP
0200
0700
0880
0000
0F80
38E0
7070
6030
E038
E038
E038
E038
E038
6030
7070
38E0
0F80
ENDCHAR

STARTCHAR Otilde
ENCODING 213
SWIDTH 833 0
DWIDTH 14 0
BBX 12 15 1 0
BITMAP
0680
0B00
0000
0F00
39C0
70E0
6060
E070
E070
E070
E070
6060
70E0
39C0
0F00
ENDCHAR

STARTCHAR Odieresis
ENCODING 214
SWIDTH 833 0
DWIDTH 14 0
BBX 12 15 1 0
BITMAP
1980
1980
0000
0F00
39C0
70E0
6060
E070
E070
E070
E070
6060
70E0
39C0
0F00
ENDCHAR

STARTCHAR multiply
ENCODING 215
SWIDTH 650 0
DWIDTH 11 0
BBX 9 8 1 2
BITMAP
C180
6300
3600
1C00
1C00
3600
6300
C180
ENDCHAR

STARTCHAR Oslash
ENCODING 216
SWIDTH 833 0
DWIDTH 14 0
BBX 12 12 1 0
BITMAP
0F20
39C0
70E0
6160
E270
E270
E470
E470
6860
70E0
39C0
4F00
ENDCHAR

STARTCHAR Ugrave
ENCODING 217
SWIDTH 833 0
DWIDTH 14 0
BBX 12 15 1 0
BITMAP
0600
0300
0000
F870
7020
7020
7020
7020
7020
7020
7020
7020
7020
3840
0F80
ENDCHAR

STARTCHAR Uacute
ENCODING 218
SWIDTH 833 0
DWIDTH 14 0
BBX 12 15 1 0
BITMAP
0300
0600
0000
F870
7020
7020
7020
7020
7020
7020
7020
7020
7020
3840
0F80
ENDCHAR

STARTCHAR Ucircumflex
ENCODING 219
SWIDTH 833 0
DWIDTH 14 0
BBX 12 16 1 0
BITMAP
0200
0700
0880
0000
F870
7020
7020
7020
7020
7020
7020
7020
7020
7020
3840
0F80
ENDCHAR

STARTCHAR Udieresis
ENCODING 220
SWIDTH 833 0
DWIDTH 14 0
BBX 12 15 1 0
BITMAP
1980
1980
0000
F870
7020
7020
7020
7020
7020
7020
7020
7020
7020
3840
0F80
ENDCHAR

STARTCHAR Idotaccent
ENCODING 221
SWIDTH 444 0
DWIDTH 7 0
BBX 5 15 1 0
BITMAP
30
30
00
F8
70
70
70
70
70
70
70
70
70
70
F8
ENDCHAR

STARTCHAR Scedilla
ENCODING 222
SWIDTH 667 0
DWIDTH 11 0
BBX 9 15 1 -3
BITMAP
3C80
7380
E180
E080
F800
7E00
3F00
8F80
8380
C380
E700
9E00
0800
0400
1800
ENDCHAR

STARTCHAR germandbls
ENCODING 223
SWIDTH 611 0
DWIDTH 10 0
BBX 9 12 1 0
BITMAP
1E00
3300
6300
6300
6600
6300
6180
6180
6180
6D80
6D00
F600
ENDCHAR

STARTCHAR agrave
ENCODING 224
SWIDTH 611 0
DWIDTH 10 0
BBX 10 11 0 0
BITMAP
1800
0C00
0000
3E00
6700
6700
1F00
6700
E700
E740
7D80
ENDCHAR

STARTCHAR aacute
ENCODING 225
SWIDTH 611 0
DWIDTH 10 0
BBX 10 11 0 0
BITMAP
0600
0C00
0000
3E00
6700
6700
1F00
6700
E700
E740
7D80
ENDCHAR

STARTCHAR acircumflex
ENCODING 226
SWIDTH 611 0
DWIDTH 10 0
BBX 10 12 0 0
BITMAP
0800
1C00
2200
0000
3E00
6700
6700
1F00
6700
E700
E740
7D80
ENDCHAR

STARTCHAR atilde
ENCODING 227
SWIDTH 611 0
DWIDTH 10 0
BBX 10 11 0 0
BITMAP
1A00
2C00
0000
3E00
6700
6700
1F00
6700
E700
E740
7D80
ENDCHAR

STARTCHAR adieresis
ENCODING 228
SWIDTH 611 0
DWIDTH 10 0
BBX 10 11 0 0
BITMAP
3300
3300
0000
3E00
6700
6700
1F00
6700
E700
E740
7D80
ENDCHAR

STARTCHAR aring
ENCODING 229
SWIDTH 611 0
DWIDTH 10 0
BBX 10 12 0 0
BITMAP
0C00
1200
0C00
0000
3E00
6700
6700
1F00
6700
E700
E740
7D80
ENDCHAR

STARTCHAR ae
ENCODING 230
SWIDTH 870 0
DWIDTH 15 0
BBX 14 8 1 0
BITMAP
3EF0
6398
639C
1FFC
6380
E384
E388
7EF0
ENDCHAR

STARTCHAR ccedilla
ENCODING 231
SWIDTH 556 0
DWIDTH 9 0
BBX 8 11 0 -3
BITMAP
3E
73
E3
E0
E0
E1
72
3C
08
04
18
ENDCHAR

STARTCHAR egrave
ENCODING 232
SWIDTH 574 0
DWIDTH 9 0
BBX 8 11 0 0
BITMAP
30
18
00
3C
66
E7
FF
E0
E1
62
3C
ENDCHAR

STARTCHAR eacute
ENCODING 233
SWIDTH 574 0
DWIDTH 9 0
BBX 8 11 0 0
BITMAP
0C
18
00
3C
66
E7
FF
E0
E1
62
3C
ENDCHAR

STARTCHAR ecircumflex
ENCODING 234
SWIDTH 574 0
DWIDTH 9 0
BBX 8 12 0 0
BITMAP
08
1C
22
00
3C
66
E7
FF
E0
E1
62
3C
ENDCHAR

STARTCHAR edieresis
ENCODING 235
SWIDTH 574 0
DWIDTH 9 0
BBX 8 11 0 0
BITMAP
66
66
00
3C
66
E7
FF
E0
E1
62
3C
ENDCHAR

STARTCHAR igrave
ENCODING 236
SWIDTH 370 0
DWIDTH 6 0
BBX 5 11 0 0
BITMAP
C0
60
00
F0
70
70
70
70
70
70
F8
ENDCHAR

STARTCHAR iacute
ENCODING 237
SWIDTH 370 0
DWIDTH 6 0
BBX 5 11 0 0
BITMAP
30
60
00
F0
70
70
70
70
70
70
F8
ENDCHAR

STARTCHAR icircumflex
ENCODING 238
SWIDTH 370 0
DWIDTH 6 0
BBX 5 12 0 0
BITMAP
20
70
88
00
F0
70
70
70
70
70
70
F8
ENDCHAR

STARTCHAR idieresis
ENCODING 239
SWIDTH 370 0
DWIDTH 6 0
BBX 6 11 0 0
BITMAP
CC
CC
00
F0
70
70
70
70
70
70
F8
ENDCHAR

STARTCHAR gbreve
ENCODING 240
SWIDTH 611 0
DWIDTH 10 0
BBX 9 15 1 -3
BITMAP
4200
3C00
1800
0180
7F80
E600
E600
E600
7C00
8000
F800
7E00
CF00
C700
7E00
ENDCHAR

STARTCHAR ntilde
ENCODING 241
SWIDTH 685 0
DWIDTH 12 0
BBX 11 11 0 0
BITMAP
0D00
1600
0000
F780
79C0
71C0
71C0
71C0
71C0
71C0
FBE0
ENDCHAR

STARTCHAR ograve
ENCODING 242
SWIDTH 611 0
DWIDTH 10 0
BBX 9 11 0 0
BITMAP
1800
0C00
0000
3E00
6300
E380
E380
E380
E380
6300
3E00
ENDCHAR

STARTCHAR oacute
ENCODING 243
SWIDTH 611 0
DWIDTH 10 0
BBX 9 11 0 0
BITMAP
0600
0C00
0000
3E00
6300
E380
E380
E380
E380
6300
3E00
ENDCHAR

STARTCHAR ocircumflex
ENCODING 244
SWIDTH 611 0
DWIDTH 10 0
BBX 9 12 0 0
BITMAP
0800
1C00
2200
0000
3E00
6300
E380
E380
E380
E380
6300
3E00
ENDCHAR

STARTCHAR otilde
ENCODING 245
SWIDTH 611 0
DWIDTH 10 0
BBX 9 11 0 0
BITMAP
1A00
2C00
0000
3E00
6300
E380
E380
E380
E380
6300
3E00
ENDCHAR

STARTCHAR odieresis
ENCODING 246
SWIDTH 611 0
DWIDTH 10 0
BBX 9 11 0 0
BITMAP
3300
3300
0000
3E00
6300
E380
E380
E380
E380
6300
3E00
ENDCHAR

STARTCHAR divide
ENCODING 247
SWIDTH 606 0
DWIDTH 10 0
BBX 10 10 0 1
BITMAP
0C00
0C00
0000
0000
FFC0
FFC0
0000
0000
0C00
0C00
ENDCHAR

STARTCHAR oslash
ENCODING 248
SWIDTH 611 0
DWIDTH 10 0
BBX 9 8 0 0
BITMAP
3E80
6300
E780
EB80
EB80
F380
6300
BE00
ENDCHAR

STARTCHAR ugrave
ENCODING 249
SWIDTH 685 0
DWIDTH 12 0
BBX 11 11 0 0
BITMAP
1800
0C00
0000
F3C0
71C0
71C0
71C0
71C0
71C0
73C0
3DE0
ENDCHAR

STARTCHAR uacute
ENCODING 250
SWIDTH 685 0
DWIDTH 12 0
BBX 11 11 0 0
BITMAP
0600
0C00
0000
F3C0
71C0
71C0
71C0
71C0
71C0
73C0
3DE0
ENDCHAR

STARTCHAR ucircumflex
ENCODING 251
SWIDTH 685 0
DWIDTH 12 0
BBX 11 12 0 0
BITMAP
0400
0E00
1100
0000
F3C0
71C0
71C0
71C0
71C0
71C0
73C0
3DE0
ENDCHAR

STARTCHAR udieresis
ENCODING 252
SWIDTH 685 0
DWIDTH 12 0
BBX 11 11 0 0
BITMAP
1980
1980
0000
F3C0
71C0
71C0
71C0
71C0
71C0
73C0
3DE0
ENDCHAR

STARTCHAR dotlessi
ENCODING 253
SWIDTH 370 0
DWIDTH 6 0
BBX 5 8 0 0
BITMAP
F0
70
70
70
70
70
70
F8
ENDCHAR

STARTCHAR scedilla
ENCODING 254
SWIDTH 500 0
DWIDTH 8 0
BBX 7 11 0 -3
BITMAP
7A
C6
F0
FC
7E
0E
CE
BC
10
08
30
ENDCHAR

STARTCHAR ydieresis
ENCODING 255
SWIDTH 611 0
DWIDTH 10 0
BBX 10 14 0 -3
BITMAP
3300
3300
0000
F9C0
7080
3980
3900
1D00
0E00
0E00
0400
6800
6800
3000
ENDCHAR
ENDFONT
